- 
http://www.Speed.Cd      fast  and The Hottest Private Tracker on the net

   signup is open now

Please Seed back to make the speed Faster!!!

------------------nfo--------------------------
-[img]http://img12.imageshack.us/img12/7135/gootd.jpg[/img]
[code]
Imdb:http://www.imdb.com/title/tt1068242/

Plot:City kid Ren MacCormack moves to a small town where rock 'n' roll and dancing have been banned, and his rebellious spirit shakes up the populace.

Sources:FYA THNXS!

Notes:
Encoded the video added few filters :) take it or leave it :P
enocded by LoGiCuRL

Greetz:
Goes out to the people next door :P you know what i mean haha :D

Format                                   : AVI
Format/Info                              : Audio Video Interleave
File size                                : 1.11 GiB
Duration                                 : 1h 48mn
Overall bit rate                         : 1 466 Kbps
Writing library                          : VirtualDub build 32842/release

Video
ID                                       : 0
Format                                   : MPEG-4 Visual
Format profile                           : Advanced Simple@L5
Format settings, BVOP                    : 2
Format settings, QPel                    : No
Format settings, GMC                     : No warppoints
Format settings, Matrix                  : Default (H.263)
Codec ID                                 : XVID
Codec ID/Hint                            : XviD
Duration                                 : 1h 48mn
Bit rate                                 : 1 334 Kbps
Width                                    : 704 pixels
Height                                   : 304 pixels
Display aspect ratio                     : 2.35:1
Frame rate                               : 25.000 fps
Color space                              : YUV
Chroma subsampling                       : 4:2:0
Bit depth                                : 8 bits
Scan type                                : Progressive
Compression mode                         : Lossy
Bits/(Pixel*Frame)                       : 0.249
Stream size                              : 1.01 GiB (91%)
Writing library                          : XviD 63

Audio
ID                                       : 1
Format                                   : MPEG Audio
Format version                           : Version 2
Format profile                           : Layer 3
Codec ID                                 : 55
Codec ID/Hint                            : MP3
Duration                                 : 1h 48mn
Bit rate mode                            : Constant
Bit rate                                 : 128 Kbps
Channel(s)                               : 2 channels
Sampling rate                            : 16.0 KHz
Compression mode                         : Lossy
Delay relative to video                  : 550ms
Stream size                              : 99.3 MiB (9%)
Alignment                                : Split accross interleaves
Interleave, duration                     : 16355 ms (408.87 video frames)
[/code]
Screens:
[img]http://img690.imageshack.us/img690/2237/vlcsnap2011112718h14m44.png[/img]
[img]http://img442.imageshack.us/img442/9298/vlcsnap2011112718h14m54.png[/img]
[img]http://img545.imageshack.us/img545/7232/vlcsnap2011112718h15m03.png[/img]
[img]http://img14.imageshack.us/img14/338/vlcsnap2011112718h15m15.png[/img]
[img]http://img853.imageshack.us/img853/1452/vlcsnap2011112718h15m18.png[/img]
[img]http://img822.imageshack.us/img822/6067/vlcsnap2011112718h15m22.png[/img]
[img]http://img213.imageshack.us/img213/9642/vlcsnap2011112718h15m27.png[/img]
[img]http://img26.imageshack.us/img26/165/vlcsnap2011112718h15m32.png[/img]